<svg width="24px" height="24px" viewBox="0 0 27 27" preserveAspectRatio="xMinYMin meet" version="1.1" xmlns="http://www.w3.org/2000/svg" xmlns:xlink="http://www.w3.org/1999/xlink">
    <desc>Lisez! icon: Close</desc>
    <g id="icon-close" stroke="none" stroke-width="1" fill="#636363" fill-rule="nonzero">
        <path d="M-2,14 L28,14 C28.5,14 29,13.5 29,13 C29,12.447 28.5,12 28,12 L-2,12 C-2.5,12 -3,12.447 -3,13 C-3,13.5 -2.5,14 -2,14 Z" transform="translate(13.000000, 13.000000) rotate(45.000000) translate(-13.000000, -13.000000) "></path>
        <path d="M-2,14 L28,14 C28.5,14 29,13.5 29,13 C29,12.447 28.5,12 28,12 L-2,12 C-2.5,12 -3,12.447 -3,13 C-3,13.5 -2.5,14 -2,14 Z" transform="translate(13.000000, 13.000000) rotate(-45.000000) translate(-13.000000, -13.000000) "></path>
    </g>
</svg>