<svg width="24px" height="20px" viewBox="0 0 24 20" version="1.1" xmlns="http://www.w3.org/2000/svg" xmlns:xlink="http://www.w3.org/1999/xlink">
    <g id="Livres" transform="translate(-185.000000, -486.000000)" fill="#FFFFFF">
        <g id="MEGA-MENU" transform="translate(0.000000, 95.000000)" fill-rule="nonzero">
            <g id="NEWSLETTER" transform="translate(0.000000, 370.000000)">
                <g id="Icon/Mail" transform="translate(185.000000, 19.000000)">
                    <path d="M21.6,2.4 L2.4,2.4 C1.08,2.4 0.012,3.48 0.012,4.8 L0,19.2 C0,20.52 1.08,21.6 2.4,21.6 L21.6,21.6 C22.92,21.6 24,20.52 24,19.2 L24,4.8 C24,3.48 22.92,2.4 21.6,2.4 Z M21.6,19.2 L2.4,19.2 L2.4,7.2 L12,13.2 L21.6,7.2 L21.6,19.2 Z M12,10.8 L2.4,4.8 L21.6,4.8 L12,10.8 Z" id="email"></path>
                </g>
            </g>
        </g>
    </g>
</svg>