<svg width="162px" height="104px" viewBox="0 0 162 104" preserveAspectRatio="xMinYMin meet" version="1.1" xmlns="http://www.w3.org/2000/svg" xmlns:xlink="http://www.w3.org/1999/xlink">
    <desc>Lisez!</desc>
        <path fill-rule="evenodd" stroke="none" fill="#ED3936" d="M8.90943286,76.5655861 C4.74661857,76.9230122 0.534504286,72.8337948 0.0592328571,67.2698296 C-1.14291,53.1970296 16.2478471,7.5275687 28.0815471,6.51177739 C30.9382757,6.2663513 34.3373043,8.52923826 34.6797329,12.5378643 C35.5324043,22.5202296 19.01229,50.4778643 9.78954714,59.9243339 C9.49059,60.2790817 9.28149,60.7095513 9.22053286,60.9613078 C8.75619,62.6602991 8.25809,65.0556383 8.41497571,66.8890296 C8.55364714,68.5152209 9.20814714,69.6992557 10.85909,69.5575513 C15.71089,69.14096 22.8387471,58.003047 28.2935614,46.9876035 C31.0424614,39.6645078 33.7872329,32.9880904 34.2673614,31.777273 C34.5381471,31.0948035 35.1627757,30.7113252 35.8971757,30.6482643 C38.42799,30.4308383 42.8623186,33.2654122 43.0439757,35.3919513 C43.0930329,35.9650991 42.9713614,36.4698296 42.6058614,36.9962296 C40.6185614,39.7214817 31.4555614,60.4538991 31.9029043,65.6903861 C31.9655614,66.4261774 32.2526186,66.8968209 32.8238186,66.8478817 C34.0653043,66.7412383 36.4224757,63.1971687 38.8889329,58.814073 C38.8653757,55.4691687 39.8591471,52.352647 42.16289,52.03856 C42.3384757,52.0146991 42.4742329,51.9642991 42.5813329,51.8627687 C43.0466471,50.9468035 43.49569,50.0503165 43.9204471,49.1930296 C45.2100186,46.5040557 46.5578757,43.6456209 47.7097471,41.4202296 C49.7546043,37.4539687 50.9538329,35.1255861 52.3155329,32.7828383 C54.90439,28.4399165 57.3927043,24.8471513 60.90199,24.5457252 C64.24759,24.2586643 67.3418329,26.7954643 67.5164471,28.8401948 C67.5725471,29.4953948 67.3692757,30.0071861 66.9151329,30.4585948 C63.1671186,33.7470122 63.5656471,44.1805426 63.5297043,55.3104209 C63.4561186,67.9267339 57.3324757,73.2318817 51.1301471,73.7646122 C45.39289,74.2569252 41.6861614,69.9122991 39.9796043,64.9701774 C36.7027329,70.2526817 33.1130614,74.4874991 29.8825757,74.7648209 C26.3735329,75.066247 23.3798329,71.779047 23.0097186,67.4429426 C22.9337043,66.5535165 22.9407471,65.612473 23.0274471,64.6071513 C18.9768329,70.7230817 13.9895186,76.1295165 8.90943286,76.5655861 Z M109.775217,59.917687 C109.570489,60.0788696 109.36576,60.2441913 109.37426,60.3810261 C109.38446,60.556087 109.675889,60.6865913 110.008117,60.7313913 C115.21036,61.4267652 120.658374,65.1213043 120.994246,72.432713 C121.556217,84.6611652 107.574931,102.017026 91.2750886,102.769861 C81.0738743,103.241235 76.3369457,96.8871826 76.1671886,93.1885043 C76.0960314,91.6409565 77.2814171,89.7045739 78.7273886,89.6381043 C79.5458171,89.5998783 80.4482743,90.1637739 81.2516457,91.7383478 C82.2925314,93.4928522 83.2612886,95.230313 86.8094314,95.0664522 C97.8980457,94.5544174 111.102917,77.2343478 110.745431,69.4525391 C110.617931,66.6734783 108.797717,65.7548348 107.023646,65.836887 C105.138589,65.9235652 103.304531,67.1224522 101.772103,67.2110783 C99.6454029,67.2914261 97.8045457,64.5924696 97.7217314,62.7914609 C97.6746171,61.764713 98.0653743,60.8032174 98.8753029,60.3858957 C98.88016,60.3827304 98.88186,60.3802957 98.8884171,60.376887 C99.1677029,60.2402957 99.58566,60.0153217 99.6718743,59.9685739 C104.902774,56.736887 117.153703,45.2836696 123.686074,35.3417217 C123.799974,35.1669043 123.84636,35.0101043 123.835917,34.8822783 C123.815274,34.6249217 123.55906,34.4941739 123.162474,34.6149391 C119.013989,35.8671478 113.53756,37.1047478 104.72816,37.6462435 C104.324774,37.6649913 104.143846,37.8402957 104.040389,38.0837739 C101.013903,44.1210609 99.4435886,47.4279826 98.3648171,49.5737565 C97.6843314,50.9486783 96.94046,52.3783826 96.2038743,53.7357739 C91.8759171,61.7727478 84.58996,70.8045739 76.2665171,71.5191826 C70.3349743,72.0282957 65.59416,67.9049913 64.9848314,60.7696174 C63.9879029,49.097513 74.1092171,27.5275304 84.1907029,26.6622087 C88.2396171,26.3145217 93.7029314,29.2535478 94.1648457,34.661687 C94.8676743,42.8895478 85.9851743,52.4236696 77.6903886,53.1358435 C76.2143029,53.2624522 75.3832457,53.0508696 75.06826,53.0778957 C74.80986,53.1002957 74.7008171,53.192087 74.6401029,53.4438435 C74.0266457,55.8873913 73.6715886,58.472887 73.8394029,60.4362957 C74.0349029,62.7269391 74.9657743,64.9552522 77.9849743,64.6959478 C81.6577029,64.3806435 87.1309743,60.1195304 91.5704029,53.3917391 C91.9521743,52.8086087 92.3327314,52.2116 92.7120743,51.6024174 C94.7377457,47.9804348 96.5492171,43.2964 100.167789,35.1230783 C100.239431,34.9482609 100.307431,34.7534783 100.277074,34.4330609 C100.268089,34.3376174 100.251089,34.2290261 100.221946,34.1080174 C99.9737457,33.1068348 99.7396314,32.4082957 99.6932457,31.3976174 C99.5676886,28.669687 100.367903,26.3033217 102.585431,26.2005739 C104.198731,26.1260696 103.732689,29.1856174 109.680503,28.9112174 C118.21086,28.5172696 124.873403,24.2590783 126.65646,24.1767826 C129.941831,24.0248522 133.166003,28.9426261 133.380446,33.6062087 C133.465203,35.4617565 133.074446,37.2751826 132.021417,38.7153565 C127.840631,44.4332 117.520903,53.858487 109.775217,59.917687 Z M43.6921614,58.3658296 C43.6710329,58.4661426 43.6666614,58.5698643 43.6778329,58.6920904 C44.0972471,63.1238817 46.4311043,67.7392557 49.4420471,67.4806817 C55.6453471,66.9481948 54.9143471,44.9231513 56.1393186,36.1632904 C56.19299,35.8297252 56.1859471,35.7479165 56.1789043,35.6658643 C56.1650614,35.5020035 56.0764186,35.4272557 55.9129757,35.4413774 C55.8311329,35.4481948 55.6686614,35.462073 55.5195471,35.6400557 C53.9383043,37.3414817 51.3657186,42.837273 49.8218757,45.9369948 C48.2617614,49.0652035 46.7125757,52.3110122 45.3652043,55.0192209 C44.8340757,56.11536 44.2747757,57.2382817 43.6921614,58.3658296 Z M11.5296186,50.4610643 C11.4579757,50.6621774 11.4334471,50.829447 11.4443757,50.9589774 C11.4633186,51.1773774 11.5854757,51.2879165 11.7564471,51.2733078 L11.7562043,51.2730643 C11.9517043,51.2562643 12.2115614,51.0770643 12.4551471,50.7106296 C21.6227614,37.7259339 30.7736186,17.8189078 30.3964614,13.4009948 C30.3474043,12.8283339 30.06739,12.4399861 29.6596329,12.4748035 C26.5583471,12.7411687 16.7823757,33.03216 11.5296186,50.4610643 Z M76.4564314,47.7659304 C76.4051886,47.8961913 76.34666,48.0870783 76.36196,48.2672522 C76.3869743,48.5594261 76.60676,48.8243304 77.36326,48.7593217 C82.58736,48.3108348 88.37416,37.1651304 88.0693743,33.5964696 C88.0074457,32.8721217 87.6944029,32.4601565 87.0743886,32.5132348 C84.21766,32.7586609 79.50016,40.0876 76.4564314,47.7659304 Z M134.448774,58.9433357 C136.457446,58.770953 137.627531,59.9233357 137.779317,61.6999965 C138.011974,64.4247617 136.028074,66.9812835 133.783589,67.1741183 C131.774674,67.3465009 130.313403,65.5627791 130.146317,63.6081357 C129.90346,60.76504 132.322317,59.1259443 134.448774,58.9433357 Z M160.740683,5.79909217 C160.775654,6.20740522 160.713726,6.60744 160.534497,6.98410087 C158.016797,12.2795096 144.021426,45.7947791 141.377926,52.6766922 C140.912369,53.8823965 140.18574,54.4436139 139.426569,54.5088661 C138.040826,54.6276835 136.548954,53.0893878 136.352969,50.79704 C136.293711,50.1038574 136.352483,49.341527 136.569111,48.535127 C138.497883,41.4523443 149.926011,7.54531826 151.365911,1.90417043 C151.643254,0.834326957 152.39174,0.338361739 153.35224,0.255822609 C156.077097,0.02184 160.51094,3.10719652 160.740683,5.79909217 Z M43.3949043,25.059927 C41.0268043,25.2632313 38.6798329,22.7946052 38.43819,19.9631965 C38.0957614,15.95384 40.8934757,11.1804487 45.2187614,10.8091443 C48.4021329,10.5357183 49.6977757,12.2376313 49.9005614,14.6110574 C50.24299,18.6196835 46.98579,24.7516835 43.3949043,25.059927 Z M92.2013457,79.3118261 C91.9876314,79.397287 91.7532743,79.4786087 91.4912314,79.5526261 C88.3136886,80.4532522 50.6812743,94.9282783 8.01394571,90.2386435 C2.73180286,89.7794435 2.66647429,86.0581217 2.66647429,86.0581217 C2.66647429,86.0581217 2.47704571,82.2788522 6.08201714,83.1750957 C9.68674571,84.0715826 43.9602029,92.4197217 91.10946,76.401287 C91.41716,76.2919652 91.6913457,76.2118609 91.9393029,76.1529391 L91.9397886,76.1519652 C91.9397886,76.1519652 93.7804029,75.5858783 94.1463886,76.7175652 C94.5123743,77.8492522 93.5394886,78.8058783 92.2207743,79.3052522 C92.2139743,79.307687 92.2079029,79.3091478 92.2013457,79.3118261 Z" class="svg-interior-logo"></path>
</svg>