<svg width="48px" height="48px" viewBox="0 0 48 48" preserveAspectRatio="xMinYMin meet" version="1.1" xmlns="http://www.w3.org/2000/svg" xmlns:xlink="http://www.w3.org/1999/xlink">
    <desc>Lisez! icon: Search engine</desc>
    <g stroke="none" stroke-width="1" fill="none" fill-rule="evenodd" stroke-linejoin="round">
        <g stroke="#ED3936">
            <path d="M20,30 C20,30 17,29 17,24 C15.348,24 15.348,20 17,20 C17,19.33 14,12 19,13 C20,9 31,9 32,13 C32.694,15.776 31,19.508 31,20 C32.652,20 32.652,24 31,24 C31,29 28,30 28,30 L28,35 C32.954,36.858 37.86,38.394 40.372,40.15 C44.468,35.998 47,30.296 47,24 C47,11.296 36.704,1 24,1 C11.296,1 1,11.296 1,24 C1,30.306 3.54,36.018 7.65,40.174 C10.31,38.334 15.554,36.682 20,35 L20,30 L20,30 Z" id="Stroke-528"></path>
            <path d="M7.6504,40.1738 C11.8204,44.3878 17.6044,46.9998 24.0004,46.9998 C30.4064,46.9998 36.1984,44.3798 40.3704,40.1498" id="Stroke-529"></path>
        </g>
    </g>
</svg>