<svg xmlns="http://www.w3.org/2000/svg" width="39.215" height="39.214" viewBox="0 0 39.215 39.214">
  <path id="facebook" d="M39.214,34.162V69.043a2.161,2.161,0,0,1-2.162,2.162h-10V56.027H32.15l.762-5.917H27.047V46.329c0-1.716.473-2.88,2.932-2.88h3.134v-5.3a42.128,42.128,0,0,0-4.569-.236c-4.517,0-7.615,2.757-7.615,7.825V50.11H15.817v5.917h5.112V71.214H2.162A2.167,2.167,0,0,1,0,69.052V34.162A2.167,2.167,0,0,1,2.162,32H37.043A2.169,2.169,0,0,1,39.214,34.162Z" transform="translate(0 -32)" fill="#fff"/>
</svg>
