<?xml version="1.0" encoding="utf-8"?>
<!-- Generator: Adobe Illustrator 21.0.0, SVG Export Plug-In . SVG Version: 6.00 Build 0)  -->
<svg version="1.1" id="Calque_1" xmlns="http://www.w3.org/2000/svg" xmlns:xlink="http://www.w3.org/1999/xlink" x="0px" y="0px"
	 viewBox="0 0 24.4 24.5" style="enable-background:new 0 0 24.4 24.5;" xml:space="preserve">
<style type="text/css">
	.st0{fill:#FFFFFF;}
</style>
<g id="bxl-instagram" transform="translate(-0.001 -0.001)">
	<path class="st0" d="M19.4,0H5C2.2,0,0,2.2,0,5v14.4c0,2.8,2.2,5,5,5h14.4c2.8,0,5-2.2,5-5V5C24.4,2.2,22.2,0,19.4,0z M19.6,12.1
		c0,4-3.2,7.2-7.2,7.2c-4,0-7.2-3.2-7.2-7.2c0-4,3.2-7.2,7.2-7.2c0,0,0,0,0,0C16.4,4.9,19.6,8.1,19.6,12.1
		C19.6,12.1,19.6,12.1,19.6,12.1z M20.7,5.4c-0.9,0-1.7-0.8-1.7-1.7C19,2.8,19.8,2,20.7,2c0.9,0,1.7,0.8,1.7,1.7
		C22.4,4.7,21.6,5.4,20.7,5.4z"/>
	<path class="st0" d="M12.4,7.4c-2.6,0-4.7,2.1-4.7,4.7c0,2.6,2.1,4.7,4.7,4.7c2.6,0,4.7-2.1,4.7-4.7c0,0,0,0,0,0
		C17,9.5,15,7.4,12.4,7.4z"/>
</g>
<path class="st0" d="M24.3,7.2c0-1-0.2-2-0.6-3c-0.6-1.6-1.9-2.9-3.6-3.6c-0.9-0.4-2-0.5-3-0.6C15.9,0,15.5,0,12.2,0s-3.7,0-5,0.1
	c-1,0-2,0.2-3,0.6C2.6,1.3,1.3,2.6,0.6,4.2c-0.4,0.9-0.5,2-0.6,3C0,8.5,0,8.9,0,12.2s0,3.7,0.1,5c0,1,0.2,2,0.6,3
	c0.6,1.6,1.9,2.9,3.6,3.6c0.9,0.4,1.9,0.6,3,0.6c1.3,0.1,1.7,0.1,5,0.1c3.3,0,3.7,0,5-0.1c1,0,2-0.2,3-0.6c1.6-0.6,2.9-1.9,3.6-3.6
	c0.4-0.9,0.5-2,0.6-3c0.1-1.3,0.1-1.7,0.1-5S24.4,8.5,24.3,7.2z M21.7,5.1c0.2,0.7,0.4,1.4,0.4,2.2c0.1,1.3,0.1,1.7,0.1,5
	c0,3.3,0,3.7-0.1,5h0v0c0,0.8-0.2,1.6-0.4,2.3c-0.4,1.1-1.3,1.9-2.3,2.3c-0.7,0.3-1.5,0.4-2.3,0.4c-1.3,0.1-1.7,0.1-5,0.1
	s-3.6,0-5-0.1c-0.8,0-1.5-0.2-2.3-0.4c-1.1-0.4-1.9-1.3-2.3-2.3c-0.3-0.7-0.4-1.5-0.4-2.3c-0.1-1.3-0.1-1.7-0.1-5s0-3.6,0.1-5
	c0-0.8,0.2-1.6,0.4-2.3C3,3.9,3.9,3.1,4.9,2.6c0.7-0.3,1.5-0.4,2.3-0.4c1.3-0.1,1.7-0.1,5-0.1c3.3,0,3.6,0,5,0.1
	c0.8,0,1.5,0.2,2.3,0.4c0,0,0,0,0,0C19.7,2.3,20.2,2,20.7,2c0.9,0,1.7,0.8,1.7,1.7C22.4,4.3,22.1,4.7,21.7,5.1z"/>
</svg>
