<?xml version="1.0" encoding="utf-8"?>
<!-- Generator: Adobe Illustrator 23.0.6, SVG Export Plug-In . SVG Version: 6.00 Build 0)  -->
<svg version="1.1" id="Calque_1_2_" xmlns="http://www.w3.org/2000/svg" xmlns:xlink="http://www.w3.org/1999/xlink" x="0px"
	 y="0px" viewBox="0 0 511.44 120" style="enable-background:new 0 0 511.44 120;" xml:space="preserve">
<style type="text/css">
	.st0{display:none;}
	.st1{display:inline;}
	.st2{fill:#CCCCCC;}
	.st3{font-family:'Bloomsburg';}
	.st4{font-size:19.2px;}
	.st5{font-family:'Verdana';}
	.st6{fill:#03A0F1;}
	.st7{fill:#FFFFFF;}
	.st8{fill-rule:evenodd;clip-rule:evenodd;fill:#FFFFFF;}
</style>
<g id="_x3C_Calque_de_texte_x3E__xA0_2_1_" class="st0">
	<text id="_x3C_Calque_de_texte_x3E__xA0_2" transform="matrix(1 0 0 1 131.9998 94.0801)" class="st1"><tspan x="0" y="0" class="st2 st3 st4">D</tspan><tspan x="12.38" y="0" class="st2 st3 st4">e</tspan><tspan x="22.77" y="0" class="st2 st3 st4">v</tspan><tspan x="35.15" y="0" class="st2 st3 st4">e</tspan><tspan x="45.54" y="0" class="st2 st3 st4">l</tspan><tspan x="49.92" y="0" class="st2 st3 st4">o</tspan><tspan x="61.3" y="0" class="st2 st3 st4">p</tspan><tspan x="72.69" y="0" class="st2 st3 st4"> </tspan><tspan x="77.07" y="0" class="st2 st3 st4">y</tspan><tspan x="89.46" y="0" class="st2 st3 st4">o</tspan><tspan x="100.84" y="0" class="st2 st3 st4">ur</tspan><tspan x="120.61" y="0" class="st2 st3 st4"> </tspan><tspan x="124.99" y="0" class="st2 st3 st4">s</tspan><tspan x="134.38" y="0" class="st2 st3 st4">k</tspan><tspan x="144.76" y="0" class="st2 st3 st4">ill</tspan><tspan x="157.91" y="0" class="st2 st3 st4">s</tspan><tspan x="167.3" y="0" class="st2 st5 st4">,</tspan><tspan x="174.68" y="0" class="st2 st3 st4"> </tspan><tspan x="179.06" y="0" class="st2 st3 st4">b</tspan><tspan x="190.45" y="0" class="st2 st3 st4">u</tspan><tspan x="201.83" y="0" class="st2 st3 st4">il</tspan><tspan x="210.6" y="0" class="st2 st3 st4">d</tspan><tspan x="221.98" y="0" class="st2 st3 st4"> </tspan><tspan x="226.37" y="0" class="st2 st3 st4">y</tspan><tspan x="238.75" y="0" class="st2 st3 st4">o</tspan><tspan x="250.14" y="0" class="st2 st3 st4">ur</tspan><tspan x="269.9" y="0" class="st2 st3 st4"> </tspan><tspan x="274.29" y="0" class="st2 st3 st4">n</tspan><tspan x="285.67" y="0" class="st2 st3 st4">e</tspan><tspan x="296.06" y="0" class="st2 st3 st4">t</tspan><tspan x="303.44" y="0" class="st2 st3 st4">w</tspan><tspan x="318.82" y="0" class="st2 st3 st4">o</tspan><tspan x="330.21" y="0" class="st2 st3 st4">r</tspan><tspan x="338.59" y="0" class="st2 st3 st4">k</tspan><tspan x="348.98" y="0" class="st2 st3 st4"> </tspan></text>
</g>
<g id="Image_xA0_3" class="st0">
	<g class="st1">
		<circle class="st6" cx="60.96" cy="60" r="48"/>
	</g>
</g>
<g id="Image_xA0_4" class="st0">
	<g class="st1">
		<circle cx="60.96" cy="60" r="48"/>
	</g>
</g>
<g id="Image_xA0_5" class="st0">
	<g class="st1">
		<ellipse transform="matrix(0.3827 -0.9239 0.9239 0.3827 -18.0975 92.9152)" class="st7" cx="60.48" cy="60" rx="48" ry="48"/>
	</g>
</g>
<g id="Image_xA0_6" class="st0">
	<g class="st1">
		<path class="st7" d="M56.88,33.36h-15c-8.28,0-15,6.72-15,15v15c0,6.63,5.38,12,12,12c0-3.31,2.7-6,6.01-6h12
			c9.95,0,18-8.06,18-18C74.88,41.42,66.82,33.36,56.88,33.36z M56.88,63.36h-12c-3.92,0-7.41,1.89-9.6,4.8
			c-1.46-1.1-2.41-2.85-2.41-4.8v-15c0-4.97,4.04-9,9-9h15c6.62,0,12,5.38,12,12.01C68.87,57.99,63.5,63.36,56.88,63.36z"/>
	</g>
</g>
<g id="Image_xA0_7" class="st0">
	<g class="st1">
		<path class="st7" d="M85.2,54.48h-15c-8.28,0-15,6.72-15,15v15c0,6.63,5.38,12,12,12c0-3.31,2.7-6,6.01-6h12c9.95,0,18-8.06,18-18
			C103.2,62.54,95.14,54.48,85.2,54.48z M85.2,84.48h-12c-3.92,0-7.41,1.89-9.6,4.8c-1.46-1.1-2.41-2.85-2.41-4.8v-15
			c0-4.97,4.04-9,9-9h15c6.62,0,12,5.38,12,12.01C97.19,79.11,91.82,84.48,85.2,84.48z"/>
	</g>
</g>
<g id="P_Droit">
	<g>
		<path class="st8" d="M55.44,62.52v0.84h1.44c5.88,0,10.78-4.25,11.79-9.84h-4.23C59.48,53.52,55.44,57.56,55.44,62.52z
			 M68.23,47.52c-1.6-4.74-6.08-8.16-11.36-8.16h-15c-4.96,0-9,4.04-9,9v15c0,1.96,0.95,3.71,2.41,4.8c2.19-2.92,5.68-4.8,9.6-4.8
			h4.56v-0.84c0-8.28,6.72-15,15-15H68.23z M79.44,53.52h-4.7c-1.07,8.92-8.65,15.84-17.86,15.84h-1.44v8.16
			c0,1.96,0.95,3.71,2.41,4.8c2.19-2.92,5.68-4.8,9.6-4.8h12c6.62,0,12-5.38,12-12C91.43,58.9,86.06,53.52,79.44,53.52z M60.48,12
			c-26.51,0-48,21.49-48,48s21.49,48,48,48c26.51,0,48-21.49,48-48S86.99,12,60.48,12z M79.44,83.52h-12c-3.31,0-6.01,2.69-6.01,6
			c-6.62,0-12-5.37-12-12v-8.16h-4.56c-3.31,0-6.01,2.69-6.01,6c-6.62,0-12-5.37-12-12v-15c0-8.28,6.72-15,15-15h15
			c8.62,0,15.82,6.07,17.58,14.16h4.98c9.95,0,18,8.06,18,18.01C97.44,75.46,89.38,83.52,79.44,83.52z"/>
	</g>
</g>
<g id="P">
	<g>
		<path class="st7" d="M175.78,32.56c-4.05-3.39-9.28-5.09-15.69-5.09c-7.79,0-14.4,0.5-19.83,1.5V92.4h9.97V71.22
			c2.98,0.85,6.36,1.27,10.16,1.27c3.79,0,6.97-0.53,9.55-1.6c2.56-1.05,4.8-2.55,6.75-4.51c1.98-1.98,3.51-4.32,4.59-7.01
			c1.13-2.82,1.7-5.85,1.7-9.1C182.98,42.48,180.58,36.58,175.78,32.56z M169.79,58.07c-2.21,2.85-5.15,4.27-8.82,4.27
			c-3.68,0-7.21-0.51-10.58-1.54V38.14c0.37-0.19,1.06-0.38,2.07-0.55c1.95-0.33,4.6-0.49,7.96-0.49c3.99,0,7.01,1.2,9.06,3.61
			c1.83,2.13,2.75,5.08,2.75,8.84C172.23,52.96,171.42,55.8,169.79,58.07z"/>
	</g>
</g>
<g id="R1">
	<g>
		<path class="st7" d="M201.23,46.34c-3.59,0.88-6.7,2.24-9.35,4.1v42h9.74V56.27c2.5-1.16,5.3-1.74,8.39-1.72
			c3.34,0.02,6.79,0.65,10.36,1.9v-9.64C213.67,45.02,207.29,44.86,201.23,46.34z"/>
	</g>
</g>
<g id="E1">
	<g>
		<path class="st7" d="M266.07,59.18c-1.08-3.8-2.84-6.9-5.27-9.31c-3.05-2.99-7.12-4.49-12.2-4.49h-1.15
			c-5.87,0-10.66,1.96-14.38,5.86c-3.71,3.9-5.56,9.89-5.56,17.98c0,8.09,2.01,14.13,6.03,18.14c1.91,1.91,4.14,3.38,6.69,4.41
			c2.61,1.07,5.4,1.6,8.37,1.6c5.41,0,10.42-1.05,15.03-3.16V79.95c-0.96,0.64-2.25,1.28-3.87,1.91c-3.26,1.27-6.54,1.91-9.87,1.91
			c-5.09,0-8.76-1.6-11.01-4.8c-1.13-1.6-1.75-3.21-1.87-4.82h29.8C267.39,67.97,267.15,62.98,266.07,59.18z M257.33,65.13h-20.4
			c0.23-3.24,1.29-5.81,3.18-7.71c1.88-1.91,4.33-2.87,7.34-2.87h1.15c2.4,0,4.46,0.95,6.17,2.83c1.71,1.89,2.56,4.17,2.56,6.83
			V65.13z"/>
	</g>
</g>
<g id="P2">
	<g>
		<path class="st7" d="M313.58,32.56c-4.05-3.39-9.28-5.09-15.69-5.09c-7.79,0-14.4,0.5-19.83,1.5V92.4h9.97V71.22
			c2.98,0.85,6.36,1.27,10.16,1.27c3.79,0,6.97-0.53,9.55-1.6c2.56-1.05,4.8-2.55,6.75-4.51c1.98-1.98,3.51-4.32,4.59-7.01
			c1.13-2.82,1.7-5.85,1.7-9.1C320.77,42.48,318.37,36.58,313.58,32.56z M307.59,58.07c-2.21,2.85-5.15,4.27-8.82,4.27
			c-3.68,0-7.21-0.51-10.58-1.54V38.14c0.37-0.19,1.06-0.38,2.07-0.55c1.95-0.33,4.6-0.49,7.96-0.49c3.99,0,7.01,1.2,9.06,3.61
			c1.83,2.13,2.75,5.08,2.75,8.84C310.03,52.96,309.22,55.8,307.59,58.07z"/>
	</g>
</g>
<g id="E2">
	<g>
		<path class="st7" d="M366.41,59.18c-1.08-3.8-2.84-6.9-5.27-9.31c-3.05-2.99-7.12-4.49-12.2-4.49h-1.15
			c-5.87,0-10.66,1.96-14.38,5.86c-3.71,3.9-5.56,9.89-5.56,17.98c0,8.09,2.01,14.13,6.03,18.14c1.91,1.91,4.14,3.38,6.69,4.41
			c2.61,1.07,5.4,1.6,8.37,1.6c5.41,0,10.42-1.05,15.03-3.16V79.95c-0.96,0.64-2.25,1.28-3.87,1.91c-3.26,1.27-6.54,1.91-9.87,1.91
			c-5.09,0-8.76-1.6-11.01-4.8c-1.13-1.6-1.75-3.21-1.87-4.82h29.8C367.73,67.97,367.49,62.98,366.41,59.18z M357.67,65.13h-20.4
			c0.23-3.24,1.29-5.81,3.18-7.71c1.88-1.91,4.33-2.87,7.34-2.87h1.15c2.4,0,4.46,0.95,6.17,2.83c1.71,1.89,2.56,4.17,2.56,6.83
			V65.13z"/>
	</g>
</g>
<g id="E3">
	<g>
		<path class="st7" d="M414.9,59.18c-1.08-3.8-2.84-6.9-5.27-9.31c-3.05-2.99-7.12-4.49-12.2-4.49h-1.15
			c-5.87,0-10.66,1.96-14.38,5.86c-3.7,3.9-5.56,9.89-5.56,17.98c0,8.09,2.01,14.13,6.03,18.14c1.91,1.91,4.14,3.38,6.69,4.41
			c2.61,1.07,5.4,1.6,8.37,1.6c5.41,0,10.42-1.05,15.03-3.16V79.95c-0.96,0.64-2.25,1.28-3.87,1.91c-3.26,1.27-6.54,1.91-9.87,1.91
			c-5.08,0-8.76-1.6-11.01-4.8c-1.13-1.6-1.75-3.21-1.87-4.82h29.8C416.23,67.97,415.98,62.98,414.9,59.18z M406.17,65.13h-20.4
			c0.23-3.24,1.29-5.81,3.18-7.71c1.88-1.91,4.33-2.87,7.34-2.87h1.15c2.4,0,4.46,0.95,6.17,2.83c1.71,1.89,2.56,4.17,2.56,6.83
			V65.13z"/>
	</g>
</g>
<g id="R2">
	<g>
		<path class="st7" d="M436.24,46.34c-3.58,0.88-6.7,2.24-9.35,4.1v42h9.74V56.27c2.5-1.16,5.3-1.74,8.39-1.72
			c3.34,0.02,6.79,0.65,10.36,1.9v-9.64C448.69,45.02,442.31,44.86,436.24,46.34z"/>
	</g>
</g>
<g id="S">
	<g>
		<path class="st7" d="M495.39,71.36c-1.87-2.2-4.75-4.14-8.63-5.82c-4.27-1.83-7.16-3.2-8.67-4.1c-2-1.2-3-2.34-3-3.42
			c0-2.31,1.75-3.46,5.25-3.46c2.45,0,4.78,0.42,6.99,1.27c1.11,0.44,1.97,0.87,2.58,1.29l4.76-8.08
			c-4.96-2.46-9.74-3.69-14.34-3.69c-5.2,0-9.26,1.46-12.2,4.37c-2.53,2.47-3.79,5.46-3.79,8.94c0,3.02,1.17,5.64,3.51,7.86
			c0.97,0.9,2.55,1.93,4.74,3.07l3.06,1.54c1.6,0.81,2.88,1.46,3.81,1.95c2.95,1.54,4.97,2.76,6.05,3.65
			c1.38,1.14,2.07,2.31,2.07,3.53c0,2.32-1.89,3.49-5.68,3.49c-2.69,0-6.39-1.17-11.07-3.51l-5.86,7.5
			c5.28,3.77,10.58,5.66,15.91,5.66c5.32,0,9.57-1.3,12.75-3.9c3.2-2.6,4.8-5.78,4.8-9.54C498.43,76.6,497.42,73.74,495.39,71.36z"
			/>
	</g>
</g>
</svg>
